<svg width="512" height="512" xmlns="http://www.w3.org/2000/svg">
 <!--! Font Awesome Pro 6.4.0 by @fontawesome - https://fontawesome.com License - https://fontawesome.com/license (Commercial License) Copyright 2023 Fonticons, Inc. -->

 <g>
  <title>Layer 1</title>
  <path fill="#9e945e" id="svg_1" d="m227.5,92.9c14.3,42.9 -0.3,86.2 -32.6,96.8s-70.1,-15.6 -84.4,-58.5s0.3,-86.2 32.6,-96.8s70.1,15.6 84.4,58.5zm-126.1,105.7c18.9,32.4 14.3,70.1 -10.2,84.1s-59.7,-0.9 -78.5,-33.3s-14.4,-70.1 10.1,-84.1s59.7,0.9 78.5,33.3l0.1,0zm-31.2,202.6c52.4,-141.3 145.5,-177.2 186.8,-177.2s134.4,35.9 186.8,177.2c3.6,9.7 5.2,20.1 5.2,30.5l0,1.6c0,25.8 -20.9,46.7 -46.7,46.7c-11.5,0 -22.9,-1.4 -34,-4.2l-88,-22c-15.3,-3.8 -31.3,-3.8 -46.6,0l-88,22c-11.1,2.8 -22.5,4.2 -34,4.2c-25.8,0 -46.7,-20.9 -46.7,-46.7l0,-1.6c0,-10.4 1.6,-20.8 5.2,-30.5zm352.6,-118.5c-24.5,-14 -29.1,-51.7 -10.2,-84.1s54,-47.3 78.5,-33.3s29.1,51.7 10.2,84.1s-54,47.3 -78.5,33.3zm-111.7,-93c-32.3,-10.6 -46.9,-53.9 -32.6,-96.8s52.1,-69.1 84.4,-58.5s46.9,53.9 32.6,96.8s-52.1,69.1 -84.4,58.5z"/>
 </g>
</svg>