<svg xmlns="http://www.w3.org/2000/svg" viewBox="0 0 47.5 47.5" id="speaker"><defs><clipPath id="a"><path d="M0 38h38V0H0v38Z"></path></clipPath></defs><g clip-path="url(#a)" transform="matrix(1.25 0 0 -1.25 0 47.5)"><path fill="#8899a6" d="M3 27s-2 0-2-2V13c0-2 2-2 2-2h6l8-8s1-1 2-1h1s1 0 1 1v32s0 1-1 1h-1c-1 0-2-1-2-1l-8-8H3Z"></path><path fill="#ccd6dd" d="m9 11 8-8s1-1 2-1h1s1 0 1 1v32s0 1-1 1h-1c-1 0-2-1-2-1l-8-8V11Z"></path><path fill="#8899a6" d="M24.709 11.041a1 1 0 0 0-.636 1.772A7.98 7.98 0 0 1 27 19a7.968 7.968 0 0 1-2.988 6.236 1 1 0 1 0 1.254 1.558A9.96 9.96 0 0 0 29 19a9.972 9.972 0 0 0-3.657-7.731.99.99 0 0 0-.634-.228"></path></g></svg>